HIERARCHY
ROOT Hips
{
    OFFSET   0.000000   0.000000   0.000000
    CHANNELS 6 Xposition Yposition Zposition Zrotation Xrotation Yrotation
    JOINT Chest
    {
        OFFSET   0.000000   8.007240   0.000000
        CHANNELS 3 Zrotation Xrotation Yrotation
        JOINT Chest2
        {
            OFFSET   0.000000  22.077100   0.000000
            CHANNELS 3 Zrotation Xrotation Yrotation
            JOINT Neck
            {
                OFFSET   0.000000  23.254800   0.000000
                CHANNELS 3 Zrotation Xrotation Yrotation
                JOINT Head
                {
                    OFFSET   0.000000  14.370000   1.956600
                    CHANNELS 3 Zrotation Xrotation Yrotation
                    End Site
                    {
                        OFFSET   0.000000  19.566000   0.000000
                    }
                }
            }
            JOINT LeftCollar
            {
                OFFSET   3.911900  19.017000  -0.467064
                CHANNELS 3 Zrotation Xrotation Yrotation
                JOINT LeftShoulder
                {
                    OFFSET  10.383700   0.000000   0.000000
                    CHANNELS 3 Zrotation Xrotation Yrotation
                    JOINT LeftElbow
                    {
                        OFFSET  26.662100   0.001476   0.000517
                        CHANNELS 3 Zrotation Xrotation Yrotation
                        JOINT LeftWrist
                        {
                            OFFSET  28.869000  -0.000025  -0.000106
                            CHANNELS 3 Zrotation Xrotation Yrotation
                            JOINT LeftFinger0
                            {
                                OFFSET   2.044660  -2.323460   3.252850
                                CHANNELS 3 Zrotation Xrotation Yrotation
                                JOINT LeftFinger01
                                {
                                    OFFSET   3.088130   0.000000   0.000000
                                    CHANNELS 3 Zrotation Xrotation Yrotation
                                    JOINT LeftFinger02
                                    {
                                        OFFSET   2.639460   0.000000   0.000000
                                        CHANNELS 3 Zrotation Xrotation Yrotation
                                        End Site
                                        {
                                            OFFSET   2.582190   0.000000   0.000000
                                        }
                                    }
                                }
                            }
                            JOINT LeftFinger1
                            {
                                OFFSET   8.364480   0.000000   3.252850
                                CHANNELS 3 Zrotation Xrotation Yrotation
                                JOINT LeftFinger11
                                {
                                    OFFSET   4.646930   0.000000   0.000000
                                    CHANNELS 3 Zrotation Xrotation Yrotation
                                    JOINT LeftFinger12
                                    {
                                        OFFSET   2.323460   0.000000   0.000000
                                        CHANNELS 3 Zrotation Xrotation Yrotation
                                        End Site
                                        {
                                            OFFSET   2.273050   0.000000   0.000000
                                        }
                                    }
                                }
                            }
                            JOINT LeftFinger2
                            {
                                OFFSET   8.364490   0.000015   1.078090
                                CHANNELS 3 Zrotation Xrotation Yrotation
                                JOINT LeftFinger21
                                {
                                    OFFSET   5.111620   0.000000   0.000000
                                    CHANNELS 3 Zrotation Xrotation Yrotation
                                    JOINT LeftFinger22
                                    {
                                        OFFSET   2.788160   0.000016   0.000000
                                        CHANNELS 3 Zrotation Xrotation Yrotation
                                        End Site
                                        {
                                            OFFSET   2.727660   0.000000   0.000000
                                        }
                                    }
                                }
                            }
                            JOINT LeftFinger3
                            {
                                OFFSET   7.899780   0.000017  -1.078090
                                CHANNELS 3 Zrotation Xrotation Yrotation
                                JOINT LeftFinger31
                                {
                                    OFFSET   4.646930   0.000000   0.000000
                                    CHANNELS 3 Zrotation Xrotation Yrotation
                                    JOINT LeftFinger32
                                    {
                                        OFFSET   2.323470   0.000000   0.000000
                                        CHANNELS 3 Zrotation Xrotation Yrotation
                                        End Site
                                        {
                                            OFFSET   2.273050   0.000000   0.000000
                                        }
                                    }
                                }
                            }
                            JOINT LeftFinger4
                            {
                                OFFSET   7.435090   0.000000  -3.252850
                                CHANNELS 3 Zrotation Xrotation Yrotation
                                JOINT LeftFinger41
                                {
                                    OFFSET   3.717550   0.000000   0.000000
                                    CHANNELS 3 Zrotation Xrotation Yrotation
                                    JOINT LeftFinger42
                                    {
                                        OFFSET   1.858770   0.000000   0.000000
                                        CHANNELS 3 Zrotation Xrotation Yrotation
                                        End Site
                                        {
                                            OFFSET   1.818440   0.000000   0.000000
                                        }
                                    }
                                }
                            }
                        }
                    }
                }
            }
            JOINT RightCollar
            {
                OFFSET  -3.911900  19.017000  -0.467063
                CHANNELS 3 Zrotation Xrotation Yrotation
                JOINT RightShoulder
                {
                    OFFSET -10.383700   0.000019   0.000000
                    CHANNELS 3 Zrotation Xrotation Yrotation
                    JOINT RightElbow
                    {
                        OFFSET -26.662100   0.001175   0.000102
                        CHANNELS 3 Zrotation Xrotation Yrotation
                        JOINT RightWrist
                        {
                            OFFSET -28.869000   0.000016  -0.000079
                            CHANNELS 3 Zrotation Xrotation Yrotation
                            JOINT RightFinger0
                            {
                                OFFSET  -2.044660  -2.323490   3.252850
                                CHANNELS 3 Zrotation Xrotation Yrotation
                                JOINT RightFinger01
                                {
                                    OFFSET  -3.088140   0.000000   0.000000
                                    CHANNELS 3 Zrotation Xrotation Yrotation
                                    JOINT RightFinger02
                                    {
                                        OFFSET  -2.639460   0.000000   0.000000
                                        CHANNELS 3 Zrotation Xrotation Yrotation
                                        End Site
                                        {
                                            OFFSET  -2.582190   0.000000   0.000000
                                        }
                                    }
                                }
                            }
                            JOINT RightFinger1
                            {
                                OFFSET  -8.364480   0.000000   3.252850
                                CHANNELS 3 Zrotation Xrotation Yrotation
                                JOINT RightFinger11
                                {
                                    OFFSET  -4.646930   0.000000   0.000000
                                    CHANNELS 3 Zrotation Xrotation Yrotation
                                    JOINT RightFinger12
                                    {
                                        OFFSET  -2.323470   0.000000   0.000000
                                        CHANNELS 3 Zrotation Xrotation Yrotation
                                        End Site
                                        {
                                            OFFSET  -2.273050   0.000000   0.000000
                                        }
                                    }
                                }
                            }
                            JOINT RightFinger2
                            {
                                OFFSET  -8.364480   0.000000   1.078090
                                CHANNELS 3 Zrotation Xrotation Yrotation
                                JOINT RightFinger21
                                {
                                    OFFSET  -5.111620   0.000000   0.000000
                                    CHANNELS 3 Zrotation Xrotation Yrotation
                                    JOINT RightFinger22
                                    {
                                        OFFSET  -2.788160   0.000000   0.000000
                                        CHANNELS 3 Zrotation Xrotation Yrotation
                                        End Site
                                        {
                                            OFFSET  -2.727660   0.000000   0.000000
                                        }
                                    }
                                }
                            }
                            JOINT RightFinger3
                            {
                                OFFSET  -7.899780   0.000000  -1.078090
                                CHANNELS 3 Zrotation Xrotation Yrotation
                                JOINT RightFinger31
                                {
                                    OFFSET  -4.646930   0.000000   0.000000
                                    CHANNELS 3 Zrotation Xrotation Yrotation
                                    JOINT RightFinger32
                                    {
                                        OFFSET  -2.323470   0.000000   0.000000
                                        CHANNELS 3 Zrotation Xrotation Yrotation
                                        End Site
                                        {
                                            OFFSET  -2.273050   0.000000   0.000000
                                        }
                                    }
                                }
                            }
                            JOINT RightFinger4
                            {
                                OFFSET  -7.435090   0.000000  -3.252850
                                CHANNELS 3 Zrotation Xrotation Yrotation
                                JOINT RightFinger41
                                {
                                    OFFSET  -3.717550   0.000000   0.000000
                                    CHANNELS 3 Zrotation Xrotation Yrotation
                                    JOINT RightFinger42
                                    {
                                        OFFSET  -1.858770   0.000000   0.000000
                                        CHANNELS 3 Zrotation Xrotation Yrotation
                                        End Site
                                        {
                                            OFFSET  -1.818440   0.000000   0.000000
                                        }
                                    }
                                }
                            }
                        }
                    }
                }
            }
        }
    }
    JOINT LeftHip
    {
        OFFSET   9.783040   0.000000   0.000000
        CHANNELS 3 Zrotation Xrotation Yrotation
        JOINT LeftKnee
        {
            OFFSET   0.000032 -41.789100  -0.002222
            CHANNELS 3 Zrotation Xrotation Yrotation
            JOINT LeftAnkle
            {
                OFFSET   0.000087 -41.133200  -0.000135
                CHANNELS 3 Zrotation Xrotation Yrotation
                JOINT LeftToe
                {
                    OFFSET   0.000000  -6.358960  14.674500
                    CHANNELS 3 Zrotation Xrotation Yrotation
                    End Site
                    {
                        OFFSET   0.000000   0.000000   3.913200
                    }
                }
            }
        }
    }
    JOINT RightHip
    {
        OFFSET  -9.783040   0.000000   0.000000
        CHANNELS 3 Zrotation Xrotation Yrotation
        JOINT RightKnee
        {
            OFFSET   0.000047 -41.789100  -0.000896
            CHANNELS 3 Zrotation Xrotation Yrotation
            JOINT RightAnkle
            {
                OFFSET  -0.000117 -41.133300  -0.000248
                CHANNELS 3 Zrotation Xrotation Yrotation
                JOINT RightToe
                {
                    OFFSET   0.000000  -6.358970  14.674500
                    CHANNELS 3 Zrotation Xrotation Yrotation
                    End Site
                    {
                        OFFSET   0.000000   0.000000   3.913200
                    }
                }
            }
        }
    }
}
MOTION
Frames: 6
Frame Time:   0.016667
 -1.962010  89.392100  -5.287820  -5.957210 -12.086700 -15.896300   1.906130   6.992320   0.796415   3.755940  14.006900   1.371580  -0.627412  -6.614960  -0.072276  -1.070270 -13.409300  -0.545277  -0.933213  -9.249300  -6.415980 -47.369200 -37.781400 -87.774900   7.572700 -36.044500 -28.350600   3.701900 -26.973200  -5.479560  45.618100  34.128900 -72.620700 -14.920000  -0.001331  -0.000253  -2.460000   0.001027  -0.005091 -24.711900   4.274270  -9.196560 -20.500600   0.003174   0.000457 -14.350400  -0.001514   0.001464 -24.238300   2.045870  -4.534650 -24.319300   0.008343   0.006436 -16.196600  -0.003300   0.006054 -23.084500  -0.413162   0.969220 -23.088000  -0.000356   0.007896 -15.376600  -0.003048   0.002345 -20.496300  -0.640360   1.712660 -30.759100   0.004408   0.004601 -20.485600   0.003036  -0.000302  -7.443870 -10.280100   7.357700  36.321100 -34.912600  73.585300 -20.220100 -21.067800  20.912900 -26.803500 -21.744800  16.543300 -53.343900  39.532300  78.579300   5.936140  -0.002235  -0.001770  -2.031940  -0.000108  -0.003657  24.032400   6.643890  14.549000  20.357100   0.001477  -0.012326  14.250000  -0.003361  -0.000263  26.604100   5.756240  11.318900  27.723200  -0.002069   0.001893  18.463600  -0.001560   0.000963  27.825700   4.592820   8.624440  33.196200  -0.003468   0.000294  22.108700   0.003728   0.004138  32.337500   0.814452   1.286250  48.519800  -0.004532   0.003504  32.314200  -0.001048   0.000749   2.924820  17.426000   5.930670   0.352437   1.541210  25.314200  -5.074840  -5.083590  10.796300  -0.000000   0.000000   0.000000   1.417620   9.963210  -4.993150  -0.743149   3.992630  -9.998330  -1.290310  -0.982686   7.797300  -0.000000   0.000000   0.000000
 -2.078450  89.384500  -5.270860  -6.107280 -11.985000 -16.574200   1.891940   6.947610   0.736640   3.734800  13.915500   1.253840  -0.599608  -6.527880  -0.068176  -1.022050 -13.233200   0.008281  -0.899828  -9.222130  -6.410850 -47.399400 -37.767100 -87.850100   7.591990 -36.093900 -28.271600   3.715250 -26.923200  -5.485000  45.649700  34.152200 -72.637500 -14.914000  -0.001294  -0.000250  -2.456980   0.001010  -0.005097 -24.715600   4.269700  -9.188310 -20.502700   0.003143   0.000423 -14.351900  -0.001529   0.001453 -24.220100   2.050910  -4.548770 -24.301700   0.008432   0.006469 -16.184900  -0.003299   0.006073 -23.063400  -0.407987   0.957987 -23.066900  -0.000335   0.007969 -15.362500  -0.003047   0.002344 -20.497400  -0.622492   1.664750 -30.759400   0.004439   0.004611 -20.485800   0.003078  -0.000333  -7.410230 -10.199700   7.312480  36.188000 -35.003800  73.365300 -20.225300 -21.042200  20.828600 -26.872900 -21.756600  16.551800 -53.326000  39.513800  78.545800   5.923470  -0.002242  -0.001787  -2.038270  -0.000112  -0.003662  24.043500   6.643170  14.537100  20.366000   0.001498  -0.012341  14.256200  -0.003363  -0.000236  26.616500   5.755930  11.310100  27.774700  -0.002067   0.001932  18.497900  -0.001542   0.000989  27.808900   4.603420   8.651950  33.087800  -0.003491   0.000360  22.036500   0.003731   0.004160  32.390500   0.803744   1.266570  48.599200  -0.004530   0.003564  32.367100  -0.001048   0.000781   2.998140  17.444200   5.973800   0.333403   1.681550  25.780900  -5.168330  -5.191600  10.921000   0.000000   0.000000   0.000000   1.463460   9.927120  -5.018550  -0.683013   3.883250  -9.881850  -1.329710  -0.924461   8.407320  -0.000000   0.000000   0.000000
 -2.192660  89.376700  -5.253960  -6.252050 -11.885400 -17.190500   1.879770   6.898570   0.675262   3.717860  13.815400   1.132770  -0.564865  -6.447010  -0.063443  -0.961773 -13.069600   0.565405  -0.865100  -9.176870  -6.393110 -47.470600 -37.735100 -87.964900   7.582030 -36.113700 -28.199700   3.764690 -26.858000  -5.483100  45.696700  34.189500 -72.667100 -14.903700  -0.001258  -0.000265  -2.451830   0.000995  -0.005096 -24.688600   4.265520  -9.190810 -20.480400   0.003109   0.000387 -14.336300  -0.001547   0.001443 -24.197000   2.045090  -4.539550 -24.278400   0.008527   0.006503 -16.169400  -0.003302   0.006092 -23.042500  -0.411120   0.966254 -23.046100  -0.000312   0.008043 -15.348600  -0.003050   0.002343 -20.487300  -0.614349   1.643930 -30.744000   0.004465   0.004624 -20.475500   0.003125  -0.000365  -7.381140 -10.118300   7.237110  36.033800 -35.104200  73.123200 -20.230400 -21.030900  20.727900 -26.901000 -21.668700  16.591000 -53.399600  39.555900  78.604600   5.888530  -0.002253  -0.001802  -2.055730  -0.000112  -0.003666  24.051100   6.653240  14.552900  20.373300   0.001514  -0.012361  14.261400  -0.003367  -0.000211  26.616200   5.755430  11.310300  27.773100  -0.002060   0.001961  18.496900  -0.001524   0.001022  27.799000   4.607990   8.664020  33.020500  -0.003503   0.000426  21.991600   0.003735   0.004184  32.360400   0.809642   1.277360  48.554300  -0.004533   0.003616  32.337200  -0.001044   0.000823   3.072780  17.458300   6.014260   0.324122   1.813400  26.233700  -5.258240  -5.291760  11.004800  -0.000000   0.000000   0.000000   1.514390   9.896830  -5.042300  -0.623319   3.786320  -9.741090  -1.364410  -0.872941   8.937080   0.000000   0.000000   0.000000
 -2.303840  89.368900  -5.238460  -6.389440 -11.785800 -17.754800   1.868420   6.846440   0.611641   3.702740  13.709100   1.007180  -0.524475  -6.371460  -0.058226  -0.892094 -12.916700   1.123800  -0.829361  -9.122060  -6.359620 -47.549100 -37.691000 -88.090300   7.558330 -36.131500 -28.130500   3.814120 -26.817100  -5.481300  45.746900  34.234500 -72.707800 -14.893000  -0.001226  -0.000281  -2.446490   0.000981  -0.005095 -24.661600   4.261600  -9.193320 -20.458100   0.003074   0.000351 -14.320700  -0.001564   0.001433 -24.182700   2.035700  -4.522900 -24.263200   0.008622   0.006538 -16.159300  -0.003307   0.006112 -23.030700  -0.415536   0.977719 -23.034300  -0.000287   0.008116 -15.340800  -0.003054   0.002343 -20.476900  -0.611409   1.636860 -30.728600   0.004489   0.004638 -20.465200   0.003171  -0.000397  -7.349760 -10.037400   7.187700  35.862100 -35.230800  72.853000 -20.238300 -21.012600  20.611900 -26.942800 -21.536200  16.633100 -53.473300  39.597900  78.663500   5.865930  -0.002265  -0.001815  -2.067030  -0.000111  -0.003668  24.058900   6.663310  14.568700  20.381900   0.001529  -0.012383  14.267400  -0.003370  -0.000186  26.613500   5.754910  11.312000  27.762200  -0.002053   0.001990  18.489700  -0.001505   0.001059  27.792000   4.611170   8.672470  32.973600  -0.003513   0.000490  21.960400   0.003737   0.004209  32.315700   0.818440   1.293480  48.487700  -0.004537   0.003668  32.292800  -0.001040   0.000866   3.149740  17.468400   6.052080   0.318603   1.936690  26.663600  -5.346150  -5.384920  11.064900   0.000000   0.000000   0.000000   1.572330   9.863450  -5.067210  -0.568420   3.703980  -9.586830  -1.396990  -0.827158   9.406500   0.000000   0.000000   0.000000
 -2.409060  89.361000  -5.225980  -6.517890 -11.683600 -18.273300   1.856790   6.792090   0.544825   3.687330  13.598200   0.875310  -0.477746  -6.302440  -0.052475  -0.811991 -12.777400   1.681920  -0.792179  -9.061600  -6.307860 -47.618200 -37.627900 -88.215700   7.600280 -36.092500 -28.028100   3.845740 -26.822600  -5.457690  45.785100  34.283400 -72.765700 -14.887700  -0.001208  -0.000256  -2.443840   0.000965  -0.005097 -24.688400   4.256190  -9.169440 -20.478800   0.003044   0.000320 -14.335200  -0.001582   0.001423 -24.192000   2.027230  -4.502450 -24.271400   0.008718   0.006572 -16.164800  -0.003309   0.006131 -23.034200  -0.417540   0.982243 -23.037700  -0.000263   0.008188 -15.343100  -0.003051   0.002345 -20.492400  -0.615039   1.644980 -30.751700   0.004516   0.004650 -20.480600   0.003213  -0.000427  -7.315630  -9.956170   7.187470  35.667200 -35.406100  72.542200 -20.256200 -20.966900  20.474300 -27.051100 -21.442500  16.640500 -53.391700  39.512800  78.507200   5.901960  -0.002273  -0.001821  -2.049010  -0.000109  -0.003667  24.077500   6.646250  14.522900  20.393500   0.001545  -0.012405  14.275500  -0.003371  -0.000160  26.603900   5.754280  11.318900  27.721700  -0.002053   0.002030  18.462700  -0.001485   0.001104  27.784600   4.614570   8.681340  32.924300  -0.003527   0.000548  21.927600   0.003737   0.004239  32.287600   0.824144   1.303950  48.445600  -0.004535   0.003726  32.264800  -0.001041   0.000902   3.226110  17.470300   6.085450   0.314374   2.054790  27.061900  -5.430720  -5.474030  11.117300   0.000000   0.000000   0.000000   1.643190   9.815910  -5.099170  -0.528196   3.641780  -9.416600  -1.430370  -0.785653   9.822420  -0.000000   0.000000  -0.000000
 -2.512450  89.353100  -5.215120  -6.634240 -11.580200 -18.741000   1.845080   6.734390   0.475077   3.671960  13.480500   0.737638  -0.426900  -6.237060  -0.046405  -0.725082 -12.645300   2.222640  -0.757858  -8.997740  -6.250530 -47.663500 -37.568200 -88.323600   7.660190 -36.020600 -27.911900   3.875380 -26.828500  -5.420810  45.824200  34.336400 -72.830400 -14.881500  -0.001185  -0.000222  -2.440770   0.000949  -0.005098 -24.732700   4.252930  -9.145600 -20.514100   0.003014   0.000290 -14.359900  -0.001600   0.001414 -24.200700   2.022340  -4.489410 -24.279600   0.008811   0.006607 -16.170200  -0.003309   0.006150 -23.037700  -0.418260   0.983569 -23.041100  -0.000240   0.008260 -15.345400  -0.003049   0.002347 -20.514400  -0.618669   1.653100 -30.784800   0.004542   0.004662 -20.502700   0.003254  -0.000457  -7.283720  -9.883040   7.189400  35.476900 -35.607700  72.213800 -20.264900 -20.894000  20.333700 -27.162000 -21.393700  16.640800 -53.266100  39.386200  78.280900   5.949690  -0.002281  -0.001828  -2.025150  -0.000107  -0.003666  24.100700   6.620530  14.452700  20.406100   0.001561  -0.012429  14.284300  -0.003371  -0.000135  26.593200   5.753640  11.326800  27.676000  -0.002053   0.002070  18.432200  -0.001464   0.001146  27.776900   4.618050   8.690520  32.873400  -0.003541   0.000607  21.893700   0.003737   0.004267  32.274000   0.826948   1.309110  48.425200  -0.004533   0.003785  32.251200  -0.001043   0.000938   3.306240  17.471900   6.113580   0.309508   2.155830  27.421300  -5.514840  -5.553020  11.164600  -0.000000   0.000000  -0.000000   1.717690   9.761200  -5.132220  -0.492622   3.592910  -9.249800  -1.464240  -0.750452  10.193200   0.000000   0.000000   0.000000
